<svg width="49" height="50" viewBox="0 0 49 50" fill="none" xmlns="http://www.w3.org/2000/svg">
<path d="M16.5368 1.11279H9.57432C9.02203 1.11279 8.57432 1.56051 8.57432 2.11279V9.07529M16.5368 1.11279V9.07529M16.5368 1.11279L8.57432 9.07529M16.5368 48.8878H9.57432C9.02203 48.8878 8.57432 48.4401 8.57432 47.8878V40.9253M16.5368 48.8878V40.9253M16.5368 48.8878L8.57432 40.9253M0.611816 9.07529V16.0378C0.611816 16.5901 1.05953 17.0378 1.61182 17.0378H8.57432M0.611816 9.07529L8.57432 17.0378M0.611816 9.07529H8.57432M40.4243 9.07529V17.0378M40.4243 9.07529H32.4618M40.4243 9.07529L44.7118 12.7503M40.4243 17.0378H32.4618M40.4243 17.0378L32.4618 9.07529M40.4243 17.0378L44.7118 12.7503M8.57432 17.0378L16.5368 9.07529M8.57432 17.0378V9.07529M8.57432 17.0378H16.5368M8.57432 17.0378V25.0003M16.5368 9.07529H8.57432M16.5368 9.07529V17.0378M16.5368 9.07529L24.4993 17.0378M16.5368 9.07529H24.4993M8.57432 9.07529L16.5368 17.0378M16.5368 17.0378L8.57432 25.0003M16.5368 17.0378V25.0003M16.5368 17.0378H24.4993M8.57432 25.0003H16.5368M8.57432 25.0003L16.5368 32.9628M8.57432 25.0003V32.9628M16.5368 25.0003V32.9628M16.5368 32.9628H8.57432M16.5368 32.9628L8.57432 40.9253M16.5368 32.9628V40.9253M8.57432 32.9628V40.9253M8.57432 40.9253H16.5368M24.4993 17.0378V9.07529M24.4993 17.0378L32.4618 9.07529M24.4993 17.0378H32.4618M24.4993 9.07529H32.4618M32.4618 9.07529V17.0378M44.7118 12.7503V22.244M44.7118 22.244H47.3868C47.9391 22.244 48.3868 22.6918 48.3868 23.244V23.3878C48.3868 23.9401 47.9391 24.3878 47.3868 24.3878H41.4243C40.872 24.3878 40.4243 23.9401 40.4243 23.3878V23.244C40.4243 22.6918 40.872 22.244 41.4243 22.244H44.7118ZM32.4618 48.8878H21.5181C20.9658 48.8878 20.5181 48.4401 20.5181 47.8878V31.819C20.5181 31.2668 20.9658 30.819 21.5181 30.819H47.0806C47.6329 30.819 48.0806 31.2668 48.0806 31.819V47.8878C48.0806 48.4401 47.6329 48.8878 47.0806 48.8878H36.1368M32.4618 48.8878V45.294C32.4618 44.7418 32.9095 44.294 33.4618 44.294H34.2993M32.4618 48.8878H34.2993M36.1368 48.8878V45.294C36.1368 44.7418 35.6891 44.294 35.1368 44.294H34.2993M36.1368 48.8878H34.2993M34.2993 44.294V48.8878M23.2743 33.8815H25.1118V35.4128H23.2743V33.8815ZM30.0118 33.8815H31.8493V35.4128H30.0118V33.8815ZM36.7493 33.8815H38.5868V35.4128H36.7493V33.8815ZM43.4868 33.8815H45.3243V35.4128H43.4868V33.8815ZM23.2743 38.7815H25.1118V40.3128H23.2743V38.7815ZM30.0118 38.7815H31.8493V40.3128H30.0118V38.7815ZM36.7493 38.7815H38.5868V40.3128H36.7493V38.7815ZM43.4868 38.7815H45.3243V40.3128H43.4868V38.7815ZM23.2743 44.6003H25.1118V46.1315H23.2743V44.6003ZM28.1743 44.6003H30.0118V46.1315H28.1743V44.6003ZM38.2806 44.6003H40.1181V46.4378H38.2806V44.6003ZM43.4868 44.6003H45.3243V46.1315H43.4868V44.6003Z" stroke="black" stroke-linejoin="round"/>
</svg>
