<svg width="158" height="40" viewBox="0 0 158 40" fill="none" xmlns="http://www.w3.org/2000/svg">
<path d="M22.5288 18.0983C22.1464 18.4821 21.8537 18.9455 21.6713 19.4551C21.4889 19.9648 21.4214 20.5083 21.4735 21.047L21.4554 21.0289C21.509 21.6631 21.4233 22.3012 21.2043 22.8989C20.9853 23.4965 20.6382 24.0392 20.1874 24.4892C19.7364 24.9391 19.1925 25.2856 18.5936 25.504C17.9947 25.7226 17.3552 25.8082 16.7199 25.7546L16.738 25.7727C15.978 25.7022 15.2146 25.8672 14.5519 26.2454C13.8893 26.6236 13.3596 27.1966 13.0353 27.8862C12.7109 28.5758 12.6075 29.3484 12.7393 30.0988C12.8711 30.8492 13.2316 31.5407 13.7716 32.0791C14.3117 32.6175 15.0049 32.9766 15.7569 33.1074C16.509 33.2383 17.2831 33.1344 17.9739 32.8101C18.6646 32.4857 19.2382 31.9568 19.6167 31.2952C19.9951 30.6335 20.1598 29.8716 20.0884 29.1131L20.1076 29.1312C20.0539 28.4972 20.1395 27.859 20.3586 27.2613C20.5776 26.6637 20.9247 26.121 21.3756 25.6709C21.8265 25.221 22.3704 24.8746 22.9692 24.6561C23.5682 24.4376 24.2076 24.352 24.8431 24.4056L24.8239 24.3874C25.4447 24.4431 26.0697 24.3415 26.6408 24.0921C27.2118 23.8426 27.7106 23.4533 28.0907 22.9603C28.4709 22.4673 28.7203 21.8864 28.8155 21.2716C28.9108 20.6568 28.8491 20.028 28.636 19.4433C28.4229 18.8587 28.0654 18.3372 27.5966 17.9271C27.1278 17.5171 26.5628 17.2318 25.9541 17.0977C25.3454 16.9636 24.7125 16.9849 24.1143 17.1598C23.516 17.3348 22.9718 17.6575 22.5318 18.0983H22.5288Z" fill="#EAD834"/>
<path d="M15.0872 23.3982L15.068 23.3801C15.6081 23.4344 16.1535 23.3682 16.6648 23.1864C17.1761 23.0046 17.6406 22.7117 18.0246 22.3289C18.4084 21.946 18.7024 21.4827 18.8849 20.9726C19.0675 20.4624 19.1342 19.9183 19.0802 19.3793L19.0994 19.3974C19.0457 18.7632 19.1315 18.1252 19.3504 17.5275C19.5694 16.9299 19.9165 16.3871 20.3674 15.9371C20.8183 15.4872 21.3622 15.1408 21.9611 14.9223C22.56 14.7037 23.1994 14.6182 23.8349 14.6717L23.8157 14.6536C24.5759 14.7249 25.3395 14.5603 26.0025 14.1825C26.6656 13.8047 27.1956 13.232 27.5205 12.5425C27.8453 11.8531 27.9492 11.0803 27.8178 10.3298C27.6864 9.57926 27.3263 8.88744 26.7864 8.34869C26.2465 7.80995 25.5533 7.4505 24.8012 7.3194C24.0491 7.18829 23.2748 7.29189 22.5838 7.61609C21.8929 7.94027 21.319 8.46927 20.9404 9.13092C20.5618 9.79255 20.397 10.5546 20.4684 11.3132L20.4502 11.2941C20.504 11.9282 20.4184 12.5664 20.1995 13.1642C19.9806 13.7619 19.6335 14.3047 19.1826 14.7548C18.7317 15.2047 18.1877 15.5511 17.5887 15.7696C16.9897 15.988 16.3502 16.0734 15.7147 16.0198L15.7329 16.0389C15.1928 15.9846 14.6474 16.0508 14.1361 16.2326C13.6248 16.4143 13.1603 16.7073 12.7764 17.0901C12.3924 17.473 12.0985 17.9363 11.9159 18.4464C11.7334 18.9565 11.6667 19.5007 11.7207 20.0397L11.7025 20.0216C11.756 20.6556 11.6702 21.2937 11.4511 21.8913C11.232 22.4888 10.885 23.0316 10.4341 23.4815C9.98323 23.9314 9.43943 24.2777 8.84062 24.4964C8.24181 24.715 7.60242 24.8006 6.96704 24.7473L6.9852 24.7654C6.22505 24.6941 5.46139 24.8586 4.79837 25.2365C4.13536 25.6143 3.60526 26.1869 3.2804 26.8764C2.95553 27.566 2.8517 28.3386 2.98309 29.0892C3.11447 29.8397 3.47466 30.5316 4.01453 31.0703C4.5544 31.6091 5.24766 31.9685 5.99976 32.0996C6.75186 32.2306 7.52618 32.1271 8.2171 31.8029C8.90802 31.4787 9.48192 30.9498 9.8605 30.2881C10.2391 29.6264 10.404 28.8644 10.3325 28.1058L10.3517 28.1239C10.298 27.4898 10.3838 26.8517 10.6028 26.254C10.8217 25.6564 11.1689 25.1136 11.6197 24.6636C12.0707 24.2137 12.6145 23.8673 13.2134 23.6488C13.8123 23.4302 14.4517 23.3447 15.0872 23.3982Z" fill="#CE9238"/>
<path d="M8.32534 21.3779C8.70771 20.9941 9.00046 20.5308 9.1827 20.0211C9.36494 19.5114 9.43216 18.9677 9.37958 18.4291L9.39874 18.4472C9.34507 17.813 9.43078 17.1746 9.64991 16.5768C9.86904 15.979 10.2163 15.4361 10.6675 14.9861C11.1186 14.5361 11.6627 14.1898 12.2618 13.9714C12.861 13.753 13.5007 13.6677 14.1363 13.7215L14.1171 13.7034C14.877 13.7745 15.6404 13.6099 16.3031 13.2321C16.9658 12.8543 17.4955 12.2818 17.8203 11.5925C18.1449 10.9032 18.2486 10.1308 18.1173 9.38053C17.9859 8.63027 17.6258 7.93871 17.0861 7.40016C16.5465 6.86161 15.8534 6.50228 15.1016 6.37118C14.3498 6.24007 13.5758 6.34358 12.8851 6.66758C12.1944 6.99157 11.6206 7.52028 11.2421 8.18162C10.8635 8.84295 10.6985 9.60472 10.7698 10.363L10.7516 10.3449C10.8053 10.979 10.7195 11.6172 10.5005 12.2148C10.2815 12.8124 9.93447 13.3552 9.48355 13.8052C9.03265 14.2551 8.48877 14.6015 7.88988 14.82C7.29099 15.0386 6.65152 15.1241 6.0161 15.0706L6.03426 15.0887C5.41339 15.0331 4.7885 15.1349 4.21752 15.3845C3.64653 15.6341 3.14791 16.0235 2.76787 16.5166C2.38783 17.0096 2.13866 17.5905 2.04345 18.2052C1.94825 18.82 2.01008 19.4488 2.22322 20.0334C2.43635 20.618 2.79392 21.1394 3.26276 21.5493C3.7316 21.9594 4.29655 22.2446 4.90526 22.3787C5.51397 22.5127 6.14675 22.4912 6.74496 22.3164C7.34316 22.1414 7.88743 21.8186 8.32735 21.3779H8.32534Z" fill="#EAD834"/>
<g opacity="0.5">
<path d="M34.2129 24.718L39.6691 9.59519H42.7383L48.1945 24.718H45.2959L44.1023 21.2182H38.2838L37.0689 24.718H34.2129ZM39.0297 19.0578H43.3563L41.1824 12.771L39.0297 19.0578Z" fill="black"/>
<path d="M53.6664 24.9773C52.5865 24.9773 51.6345 24.7396 50.8104 24.2644C49.9863 23.7891 49.3327 23.1265 48.8495 22.2768C48.3807 21.427 48.1462 20.4548 48.1462 19.3602C48.1462 18.2656 48.3807 17.2934 48.8495 16.4437C49.3327 15.5939 49.9863 14.9314 50.8104 14.4561C51.6345 13.9808 52.5865 13.7432 53.6664 13.7432C55.0162 13.7432 56.1529 14.1032 57.0765 14.8234C58.0001 15.5291 58.5898 16.5085 58.8455 17.7615H55.9682C55.8261 17.243 55.542 16.8398 55.1157 16.5517C54.7036 16.2492 54.2134 16.098 53.6451 16.098C52.892 16.098 52.2526 16.3861 51.7269 16.9622C51.2011 17.5383 50.9383 18.3376 50.9383 19.3602C50.9383 20.3828 51.2011 21.1822 51.7269 21.7583C52.2526 22.3344 52.892 22.6224 53.6451 22.6224C54.2134 22.6224 54.7036 22.4784 55.1157 22.1904C55.542 21.9023 55.8261 21.4918 55.9682 20.9589H58.8455C58.5898 22.1688 58.0001 23.1409 57.0765 23.8755C56.1529 24.61 55.0162 24.9773 53.6664 24.9773Z" fill="black"/>
<path d="M60.2013 24.718V14.0024H62.6097L62.8441 15.4499C63.1852 14.9314 63.6327 14.5209 64.1869 14.2185C64.7552 13.9016 65.4088 13.7432 66.1477 13.7432C67.7817 13.7432 68.9398 14.3841 69.6218 15.6659C70.0054 15.0754 70.517 14.6073 71.1564 14.2617C71.81 13.916 72.5204 13.7432 73.2877 13.7432C74.666 13.7432 75.7245 14.1608 76.4634 14.9962C77.2023 15.8316 77.5717 17.0558 77.5717 18.6689V24.718H74.8436V18.9281C74.8436 18.0064 74.666 17.3006 74.3108 16.8109C73.9697 16.3213 73.4369 16.0764 72.7122 16.0764C71.9734 16.0764 71.3766 16.3501 70.9219 16.8974C70.4814 17.4447 70.2612 18.208 70.2612 19.1874V24.718H67.5331V18.9281C67.5331 18.0064 67.3555 17.3006 67.0003 16.8109C66.645 16.3213 66.098 16.0764 65.3591 16.0764C64.6345 16.0764 64.0448 16.3501 63.5901 16.8974C63.1496 17.4447 62.9294 18.208 62.9294 19.1874V24.718H60.2013Z" fill="black"/>
<path d="M84.2326 24.9773C83.167 24.9773 82.2221 24.7468 81.398 24.286C80.5738 23.8251 79.9273 23.177 79.4584 22.3416C78.9895 21.5062 78.7551 20.5413 78.7551 19.4466C78.7551 18.3376 78.9824 17.3511 79.4371 16.4869C79.906 15.6227 80.5454 14.953 81.3553 14.4777C82.1795 13.988 83.1457 13.7432 84.254 13.7432C85.2912 13.7432 86.2077 13.9736 87.0034 14.4345C87.7991 14.8954 88.4172 15.5291 88.8577 16.3357C89.3123 17.1278 89.5397 18.0136 89.5397 18.993C89.5397 19.1514 89.5326 19.317 89.5184 19.4899C89.5184 19.6627 89.5113 19.8427 89.4971 20.03H81.4619C81.5187 20.8653 81.8029 21.5206 82.3144 21.9959C82.8402 22.4712 83.4725 22.7089 84.2113 22.7089C84.7655 22.7089 85.2273 22.5864 85.5967 22.3416C85.9803 22.0823 86.2645 21.7511 86.4492 21.3478H89.22C89.0211 22.0247 88.6871 22.6441 88.2183 23.2058C87.7636 23.7531 87.1952 24.1851 86.5132 24.502C85.8454 24.8189 85.0852 24.9773 84.2326 24.9773ZM84.254 15.99C83.5861 15.99 82.9965 16.1844 82.4849 16.5733C81.9734 16.9478 81.6466 17.5239 81.5045 18.3016H86.7689C86.7263 17.5959 86.4706 17.0342 86.0017 16.6165C85.5328 16.1988 84.9502 15.99 84.254 15.99Z" fill="black"/>
<path d="M101.602 24.9773C100.096 24.9773 98.8026 24.6532 97.7227 24.0051C96.6428 23.3426 95.8116 22.428 95.229 21.2614C94.6465 20.0804 94.3552 18.7193 94.3552 17.1782C94.3552 15.6371 94.6465 14.2761 95.229 13.095C95.8116 11.914 96.6428 10.9923 97.7227 10.3297C98.8026 9.6672 100.096 9.33594 101.602 9.33594C103.392 9.33594 104.856 9.78962 105.992 10.697C107.143 11.59 107.861 12.8502 108.145 14.4777H105.14C104.955 13.6568 104.557 13.0158 103.946 12.5549C103.349 12.0797 102.554 11.842 101.559 11.842C100.181 11.842 99.101 12.3173 98.3195 13.2679C97.538 14.2185 97.1472 15.5219 97.1472 17.1782C97.1472 18.8345 97.538 20.138 98.3195 21.0886C99.101 22.0247 100.181 22.4928 101.559 22.4928C102.554 22.4928 103.349 22.2768 103.946 21.8447C104.557 21.3982 104.955 20.7861 105.14 20.0084H108.145C107.861 21.5638 107.143 22.7809 105.992 23.6594C104.856 24.538 103.392 24.9773 101.602 24.9773Z" fill="black"/>
<path d="M114.503 24.9773C113.48 24.9773 112.556 24.7396 111.732 24.2644C110.922 23.7891 110.276 23.1337 109.793 22.2984C109.324 21.4486 109.089 20.4692 109.089 19.3602C109.089 18.2512 109.331 17.279 109.814 16.4437C110.297 15.5939 110.944 14.9314 111.753 14.4561C112.578 13.9808 113.501 13.7432 114.524 13.7432C115.533 13.7432 116.442 13.9808 117.252 14.4561C118.076 14.9314 118.723 15.5939 119.192 16.4437C119.675 17.279 119.916 18.2512 119.916 19.3602C119.916 20.4692 119.675 21.4486 119.192 22.2984C118.723 23.1337 118.076 23.7891 117.252 24.2644C116.428 24.7396 115.512 24.9773 114.503 24.9773ZM114.503 22.5792C115.213 22.5792 115.831 22.3128 116.357 21.7799C116.883 21.2326 117.146 20.426 117.146 19.3602C117.146 18.2944 116.883 17.4951 116.357 16.9622C115.831 16.4149 115.22 16.1412 114.524 16.1412C113.8 16.1412 113.174 16.4149 112.649 16.9622C112.137 17.4951 111.881 18.2944 111.881 19.3602C111.881 20.426 112.137 21.2326 112.649 21.7799C113.174 22.3128 113.792 22.5792 114.503 22.5792Z" fill="black"/>
<path d="M121.29 24.718V14.0024H123.72L123.976 16.0116C124.359 15.3203 124.878 14.773 125.531 14.3697C126.199 13.952 126.981 13.7432 127.876 13.7432V16.6597H127.109C126.512 16.6597 125.979 16.7533 125.51 16.9406C125.041 17.1278 124.672 17.4519 124.402 17.9128C124.146 18.3736 124.018 19.0146 124.018 19.8355V24.718H121.29Z" fill="black"/>
<path d="M128.675 29.4709V14.0024H131.105L131.403 15.5363C131.744 15.061 132.191 14.6433 132.746 14.2833C133.314 13.9232 134.046 13.7432 134.941 13.7432C135.936 13.7432 136.824 13.988 137.605 14.4777C138.387 14.9674 139.005 15.6371 139.459 16.4869C139.914 17.3366 140.141 18.3016 140.141 19.3818C140.141 20.462 139.914 21.427 139.459 22.2768C139.005 23.1121 138.387 23.7747 137.605 24.2644C136.824 24.7396 135.936 24.9773 134.941 24.9773C134.145 24.9773 133.449 24.8261 132.852 24.5236C132.255 24.2211 131.772 23.7963 131.403 23.249V29.4709H128.675ZM134.365 22.5576C135.232 22.5576 135.95 22.2624 136.518 21.6719C137.086 21.0814 137.371 20.318 137.371 19.3818C137.371 18.4457 137.086 17.6751 136.518 17.0702C135.95 16.4653 135.232 16.1628 134.365 16.1628C133.485 16.1628 132.76 16.4653 132.191 17.0702C131.637 17.6607 131.36 18.4241 131.36 19.3602C131.36 20.2964 131.637 21.067 132.191 21.6719C132.76 22.2624 133.485 22.5576 134.365 22.5576Z" fill="black"/>
</g>
</svg>
