<svg width="49" height="50" viewBox="0 0 49 50" fill="none" xmlns="http://www.w3.org/2000/svg">
<path d="M8.58549 13.0566L24.8062 2.64414L47.7749 17.3441M7.34982 19.794L24.8062 8.7691L43.7936 21.019V48.5814H48.9999M17.4563 38.1689V48.2751M17.4563 38.1689H24.8062M17.4563 38.1689H9.49383M24.8062 38.1689V48.5814M24.8062 38.1689H32.4625M24.8062 48.5814H5.20635V38.1689H7.04384M24.8062 48.5814H32.4625M32.4625 38.1689V48.5814M32.4625 38.1689H38.8937M32.4625 48.5814H40.1187V38.1689H38.8937M38.8937 38.1689L36.4437 30.819L35.2187 31.1531M9.49383 38.1689L35.2187 31.1531M9.49383 38.1689H7.04384M35.2187 31.1531L34.6062 30.251M7.04384 38.1689L8.26884 37.453M15.0063 33.5156L24.8062 27.7883M15.0063 33.5156V27.4502M15.0063 33.5156L8.26884 37.453M34.6062 30.251L30.625 24.3878L24.8062 27.7883M34.6062 30.251V20.1003H24.8062M24.8062 20.1003H15.0063V27.4502M24.8062 20.1003V27.4502M24.8062 27.7883V27.4502M15.0063 27.4502H24.8062M2.1436 48.8876L2.14387 26.8378M2.14387 26.8378H8.26884M2.14387 26.8378L3.67511 15.5066M8.26884 26.8378V37.453M8.26884 26.8378L6.73759 15.5066M6.73759 15.5066H5.20635M6.73759 15.5066C6.73759 15.5066 9.24586 13.2936 9.18731 10.6066C9.1162 7.343 5.20635 2.33789 5.20635 2.33789C5.20635 2.33789 1.7051 7.45165 1.53133 10.6066C1.37736 13.4021 3.67511 15.5066 3.67511 15.5066M3.67511 15.5066H5.20635M5.20635 15.5066V12.1378" stroke="black"/>
<circle cx="11.1778" cy="43.5284" r="2.10311" stroke="black"/>
</svg>
