<svg width="25" height="25" viewBox="0 0 25 25" fill="none" xmlns="http://www.w3.org/2000/svg">
<path d="M2 12.5C2 18.299 6.70101 23 12.5 23C18.299 23 23 18.299 23 12.5C23 6.70101 18.299 2 12.5 2C6.70101 2 2 6.70101 2 12.5Z" stroke="black" stroke-linecap="round" stroke-linejoin="round"/>
<path d="M3.05078 8.30011H21.9508" stroke="black" stroke-linecap="round" stroke-linejoin="round"/>
<path d="M3.05078 16.6999H21.9508" stroke="black" stroke-linecap="round" stroke-linejoin="round"/>
<path d="M11.4508 22.37C11.4508 22.37 8.30078 18.2221 8.30078 11.9225C8.30078 5.62292 11.4508 2.52502 11.4508 2.52502" stroke="black" stroke-linecap="round" stroke-linejoin="round"/>
<path d="M13.5492 22.37C13.5492 22.37 16.6992 18.2221 16.6992 11.9225C16.6992 5.62292 13.5492 2.52502 13.5492 2.52502" stroke="black" stroke-linecap="round" stroke-linejoin="round"/>
</svg>
