<svg width="151" height="40" viewBox="0 0 151 40" fill="none" xmlns="http://www.w3.org/2000/svg">
<g opacity="0.5">
<path d="M50.6234 28.7929C52.5367 28.7929 54.1098 27.8222 54.5987 26.3662V28.6241H57.4261V22.9265C57.4261 21.6393 56.4057 20.542 55.0239 20.542H50.9848V22.9265H53.8547C54.2161 22.9265 54.4499 23.1586 54.4499 23.5174C54.4499 24.889 52.6217 26.2185 50.7722 26.2185C48.3063 26.2185 46.3505 24.2982 46.3505 21.2383C46.3505 18.1785 48.3063 16.4059 50.836 16.4059C52.7493 16.4059 54.0673 17.4399 54.3011 19.0226H57.4686C57.2773 15.8573 54.5987 13.6837 50.8573 13.6837C46.9245 13.6837 43.3105 16.1949 43.3105 21.2383C43.3105 26.2818 46.8182 28.7929 50.6234 28.7929Z" fill="black"/>
<path d="M58.6398 28.6241H61.5947V13.3672H58.6398V28.6241Z" fill="black"/>
<path d="M67.9688 28.7929C71.2638 28.7929 73.6235 26.4717 73.6235 23.3063C73.6235 20.141 71.2638 17.8198 67.9688 17.8198C64.6737 17.8198 62.314 20.141 62.314 23.3063C62.314 26.4717 64.6737 28.7929 67.9688 28.7929ZM67.9688 26.2607C66.3744 26.2607 65.2902 25.0578 65.2902 23.3063C65.2902 21.5338 66.3744 20.3309 67.9688 20.3309C69.5631 20.3309 70.6473 21.5338 70.6473 23.3063C70.6473 25.0578 69.5631 26.2607 67.9688 26.2607Z" fill="black"/>
<path d="M80.2355 28.7929C83.403 28.7929 85.295 26.6194 85.295 23.3063C85.295 19.9933 83.403 17.8198 80.278 17.8198C78.9387 17.8198 77.8971 18.3262 77.3018 19.107V13.3672H74.3469V28.6241H77.3018V27.4635C77.8971 28.2865 79.0025 28.7929 80.2355 28.7929ZM79.7678 26.2607C78.1734 26.2607 77.1318 25.0789 77.1318 23.3063C77.1318 21.5127 78.1734 20.3309 79.7678 20.3309C81.3197 20.3309 82.3826 21.5127 82.3826 23.3063C82.3826 25.0789 81.3197 26.2607 79.7678 26.2607Z" fill="black"/>
<path d="M90.2414 17.8198C87.3077 17.8198 85.5645 19.529 85.437 21.6604H88.073C88.1155 20.7741 88.7746 19.9722 90.0713 19.9722C91.283 19.9722 91.9846 20.5842 91.9846 21.4705C91.9846 21.9136 91.7082 22.2512 91.1768 22.2512H89.3698C87.0314 22.2512 85.4582 23.5174 85.4582 25.6065C85.4582 27.4213 86.8826 28.7929 88.9659 28.7929C90.4327 28.7929 91.6232 28.1388 91.9846 27.147V28.6241H94.9182V21.787C94.9182 19.3813 92.9412 17.8198 90.2414 17.8198ZM89.7099 26.6616C88.8809 26.6616 88.2856 26.1763 88.2856 25.4799C88.2856 24.6569 88.9234 24.1082 89.8162 24.1082H91.9846V24.2559C91.9846 25.6065 91.1555 26.6616 89.7099 26.6616Z" fill="black"/>
<path d="M96.0537 28.6241H99.0086V13.3672H96.0537V28.6241Z" fill="black"/>
<path d="M100.578 28.6241H106.658C109.804 28.6241 111.973 27.0203 111.973 24.2137C111.973 22.2723 110.825 21.0906 109.464 20.5631C110.336 20.0988 111.207 19.0437 111.207 17.6509C111.207 15.182 109.188 13.8525 106.488 13.8525H100.578V28.6241ZM103.725 19.4868V16.3637H106.19C107.615 16.3637 108.253 16.9335 108.253 17.9253C108.253 18.9171 107.615 19.4868 106.254 19.4868H103.725ZM103.725 25.8808V22.1668H106.382C108.146 22.1668 108.933 22.8421 108.933 24.0449C108.933 25.2478 108.146 25.8808 106.382 25.8808H103.725Z" fill="black"/>
<path d="M117.113 17.8198C114.18 17.8198 112.436 19.529 112.309 21.6604H114.945C114.987 20.7741 115.646 19.9722 116.943 19.9722C118.155 19.9722 118.856 20.5842 118.856 21.4705C118.856 21.9136 118.58 22.2512 118.049 22.2512H116.242C113.903 22.2512 112.33 23.5174 112.33 25.6065C112.33 27.4213 113.754 28.7929 115.838 28.7929C117.305 28.7929 118.495 28.1388 118.856 27.147V28.6241H121.79V21.787C121.79 19.3813 119.813 17.8198 117.113 17.8198ZM116.582 26.6616C115.753 26.6616 115.158 26.1763 115.158 25.4799C115.158 24.6569 115.795 24.1082 116.688 24.1082H118.856V24.2559C118.856 25.6065 118.027 26.6616 116.582 26.6616Z" fill="black"/>
<path d="M122.756 28.6241H125.732V22.7999C125.732 21.4282 126.646 20.4364 127.943 20.4364C129.176 20.4364 130.005 21.3649 130.005 22.6522V28.6241H132.981V21.998C132.981 19.5501 131.408 17.8198 128.984 17.8198C127.517 17.8198 126.327 18.4317 125.732 19.4657V17.9886H122.756V28.6241Z" fill="black"/>
<path d="M141.463 28.6241H145.034L140.421 22.1668L144.694 17.9886H140.953L137.233 21.6182V13.3672H134.257V28.6241H137.233V25.29L138.423 24.1293L141.463 28.6241Z" fill="black"/>
</g>
<path d="M20.8709 7.89111C27.8347 7.89111 33.4796 13.536 33.4796 20.4998V29.3259C33.4796 30.3291 33.0811 31.2912 32.3717 32.0006C31.6623 32.71 30.7002 33.1085 29.697 33.1085H21.5013V27.5771C21.5013 26.3149 21.5783 25.0074 22.2402 23.9332C22.7141 23.1633 23.3481 22.5044 24.0991 22.0011C24.8501 21.4978 25.7005 21.1619 26.5927 21.0161L26.8342 20.977C26.9337 20.943 27.0202 20.8787 27.0813 20.7931C27.1425 20.7076 27.1754 20.605 27.1754 20.4998C27.1754 20.3946 27.1425 20.292 27.0813 20.2065C27.0202 20.1209 26.9337 20.0566 26.8342 20.0226L26.5927 19.9835C25.2891 19.7705 24.0853 19.1535 23.1513 18.2195C22.2172 17.2854 21.6002 16.0816 21.3872 14.778L21.3481 14.5365C21.3141 14.437 21.2498 14.3506 21.1642 14.2894C21.0787 14.2282 20.9761 14.1953 20.8709 14.1953C20.7657 14.1953 20.6631 14.2282 20.5776 14.2894C20.492 14.3506 20.4277 14.437 20.3937 14.5365L20.3546 14.778C20.2089 15.6702 19.873 16.5207 19.3697 17.2717C18.8664 18.0227 18.2075 18.6566 17.4376 19.1305C16.3633 19.7925 15.0558 19.8694 13.7936 19.8694H8.27734C8.60706 13.1987 14.119 7.89111 20.8709 7.89111Z" fill="#F58A5C"/>
<path d="M8.26172 21.1305H13.7932C15.0553 21.1305 16.3628 21.2074 17.4371 21.8694C18.2768 22.3868 18.9837 23.0937 19.5011 23.9334C20.1631 25.0077 20.24 26.3152 20.24 27.5773V33.1088H12.0443C11.0411 33.1088 10.079 32.7102 9.36962 32.0009C8.66024 31.2915 8.26172 30.3294 8.26172 29.3261V21.1305ZM33.4791 9.15223C33.4791 9.48663 33.3463 9.80734 33.1098 10.0438C32.8734 10.2803 32.5526 10.4131 32.2182 10.4131C31.8838 10.4131 31.5631 10.2803 31.3267 10.0438C31.0902 9.80734 30.9574 9.48663 30.9574 9.15223C30.9574 8.81782 31.0902 8.49712 31.3267 8.26066C31.5631 8.0242 31.8838 7.89136 32.2182 7.89136C32.5526 7.89136 32.8734 8.0242 33.1098 8.26066C33.3463 8.49712 33.4791 8.81782 33.4791 9.15223Z" fill="#F58A5C"/>
</svg>
