<svg width="25" height="25" viewBox="0 0 25 25" fill="none" xmlns="http://www.w3.org/2000/svg">
<path d="M12.4996 23.8641C6.22368 23.8641 1.136 18.7764 1.136 12.5005C1.136 6.22451 6.22368 1.13684 12.4996 1.13684C18.7756 1.13684 23.8633 6.22451 23.8633 12.5005C23.8633 18.7764 18.7756 23.8641 12.4996 23.8641Z" stroke="black" stroke-linecap="round" stroke-linejoin="round"/>
<path d="M17.6133 15.3403C17.6133 15.3403 15.9087 17.6131 12.4996 17.6131C9.09055 17.6131 7.38601 15.3403 7.38601 15.3403" stroke="black" stroke-linecap="round" stroke-linejoin="round"/>
<path d="M16.4787 9.08992C16.1649 9.08992 15.9105 8.83553 15.9105 8.52173C15.9105 8.20794 16.1649 7.95355 16.4787 7.95355C16.7925 7.95355 17.0469 8.20794 17.0469 8.52173C17.0469 8.83553 16.7925 9.08992 16.4787 9.08992Z" fill="black" stroke="black" stroke-linecap="round" stroke-linejoin="round"/>
<path d="M8.52362 9.08992C8.20982 9.08992 7.95543 8.83553 7.95543 8.52173C7.95543 8.20794 8.20982 7.95355 8.52362 7.95355C8.83741 7.95355 9.0918 8.20794 9.0918 8.52173C9.0918 8.83553 8.83741 9.08992 8.52362 9.08992Z" fill="black" stroke="black" stroke-linecap="round" stroke-linejoin="round"/>
</svg>
