<svg width="141" height="40" viewBox="0 0 141 40" fill="none" xmlns="http://www.w3.org/2000/svg">
<g opacity="0.5">
<path d="M41.4326 24.4949H45.6271V27.0194H38.2305V13.5938H41.4326V24.4949Z" fill="black"/>
<path d="M48.578 15.2388C48.0162 15.2388 47.5544 15.0731 47.1923 14.7416C46.8428 14.3973 46.668 13.9766 46.668 13.4793C46.668 12.9693 46.8428 12.5486 47.1923 12.2171C47.5544 11.8728 48.0162 11.7007 48.578 11.7007C49.1273 11.7007 49.5767 11.8728 49.9263 12.2171C50.2883 12.5486 50.4693 12.9693 50.4693 13.4793C50.4693 13.9766 50.2883 14.3973 49.9263 14.7416C49.5767 15.0731 49.1273 15.2388 48.578 15.2388ZM50.1697 16.3481V27.0198H46.9676V16.3481H50.1697Z" fill="black"/>
<path d="M56.2725 16.1943C57.009 16.1943 57.652 16.3473 58.2013 16.6533C58.763 16.9593 59.1937 17.3609 59.4933 17.8581V16.3473H62.6953V26.9999C62.6953 27.9816 62.5019 28.8678 62.1149 29.6583C61.7404 30.4615 61.1598 31.099 60.3734 31.5708C59.5994 32.0425 58.6319 32.2784 57.471 32.2784C55.9229 32.2784 54.6683 31.9023 53.7071 31.15C52.7459 30.4105 52.1966 29.4033 52.0592 28.1283H55.2238C55.3238 28.5363 55.5609 28.855 55.9354 29.0845C56.31 29.3268 56.7718 29.4479 57.3211 29.4479C57.9828 29.4479 58.5071 29.2503 58.8941 28.855C59.2936 28.4725 59.4933 27.8541 59.4933 26.9999V25.489C59.1812 25.9863 58.7506 26.3943 58.2013 26.713C57.652 27.019 57.009 27.172 56.2725 27.172C55.4111 27.172 54.6308 26.9489 53.9318 26.5026C53.2327 26.0436 52.6772 25.3998 52.2652 24.571C51.8657 23.7295 51.666 22.7605 51.666 21.664C51.666 20.5675 51.8657 19.6049 52.2652 18.7761C52.6772 17.9474 53.2327 17.3099 53.9318 16.8636C54.6308 16.4174 55.4111 16.1943 56.2725 16.1943ZM59.4933 21.6831C59.4933 20.8671 59.2686 20.2233 58.8191 19.7515C58.3822 19.2798 57.8454 19.0439 57.2087 19.0439C56.5721 19.0439 56.0291 19.2798 55.5797 19.7515C55.1427 20.2105 54.9242 20.848 54.9242 21.664C54.9242 22.48 55.1427 23.1303 55.5797 23.6148C56.0291 24.0865 56.5721 24.3224 57.2087 24.3224C57.8454 24.3224 58.3822 24.0865 58.8191 23.6148C59.2686 23.143 59.4933 22.4991 59.4933 21.6831Z" fill="black"/>
<path d="M71.2472 16.2322C72.4456 16.2322 73.4069 16.6402 74.1309 17.4562C74.855 18.2595 75.217 19.3687 75.217 20.784V27.0187H72.0337V21.2238C72.0337 20.5098 71.8527 19.9552 71.4906 19.56C71.1285 19.1647 70.6417 18.9671 70.03 18.9671C69.4183 18.9671 68.9315 19.1647 68.5694 19.56C68.2074 19.9552 68.0263 20.5098 68.0263 21.2238V27.0187H64.8242V12.8662H68.0263V17.7813C68.3509 17.3096 68.7941 16.9335 69.3559 16.653C69.9176 16.3725 70.5481 16.2322 71.2472 16.2322Z" fill="black"/>
<path d="M83.0777 24.2457V27.0188H81.4486C80.2876 27.0188 79.3826 26.7319 78.7334 26.1582C78.0843 25.5717 77.7597 24.6218 77.7597 23.3086V19.0628H76.4863V16.3471H77.7597V13.7461H80.9618V16.3471H83.059V19.0628H80.9618V23.3468C80.9618 23.6656 81.0366 23.8951 81.1865 24.0353C81.3362 24.1756 81.5859 24.2457 81.9355 24.2457H83.0777Z" fill="black"/>
<path d="M87.8779 17.8578C88.1774 17.3606 88.6082 16.959 89.17 16.653C89.7316 16.347 90.3746 16.194 91.0986 16.194C91.9598 16.194 92.7404 16.4171 93.4393 16.8633C94.1383 17.3096 94.6882 17.9471 95.087 18.7758C95.4989 19.6046 95.7054 20.5672 95.7054 21.6637C95.7054 22.7602 95.4989 23.7292 95.087 24.5707C94.6882 25.3995 94.1383 26.0433 93.4393 26.5023C92.7404 26.9486 91.9598 27.1717 91.0986 27.1717C90.3621 27.1717 89.7192 27.0251 89.17 26.7318C88.6207 26.4258 88.1899 26.0242 87.8779 25.527V27.0187H84.6758V12.8662H87.8779V17.8578ZM92.4473 21.6637C92.4473 20.8477 92.2217 20.2102 91.7725 19.7512C91.3358 19.2795 90.7928 19.0436 90.1437 19.0436C89.5069 19.0436 88.9639 19.2795 88.5145 19.7512C88.0776 20.223 87.8592 20.8668 87.8592 21.6828C87.8592 22.4988 88.0776 23.1427 88.5145 23.6145C88.9639 24.0862 89.5069 24.3221 90.1437 24.3221C90.7803 24.3221 91.3233 24.0862 91.7725 23.6145C92.2217 23.13 92.4473 22.4797 92.4473 21.6637Z" fill="black"/>
<path d="M101.953 27.172C100.93 27.172 100.006 26.9489 99.1821 26.5026C98.3704 26.0564 97.7278 25.4189 97.2535 24.5901C96.7912 23.7614 96.5605 22.7924 96.5605 21.6831C96.5605 20.5866 96.7972 19.624 97.2716 18.7953C97.746 17.9538 98.3956 17.3099 99.2194 16.8636C100.043 16.4174 100.967 16.1943 101.991 16.1943C103.014 16.1943 103.938 16.4174 104.762 16.8636C105.586 17.3099 106.235 17.9538 106.71 18.7953C107.184 19.624 107.421 20.5866 107.421 21.6831C107.421 22.7796 107.178 23.7486 106.69 24.5901C106.216 25.4189 105.561 26.0564 104.724 26.5026C103.901 26.9489 102.977 27.172 101.953 27.172ZM101.953 24.3415C102.565 24.3415 103.083 24.112 103.508 23.653C103.944 23.194 104.162 22.5374 104.162 21.6831C104.162 20.8289 103.951 20.1723 103.526 19.7133C103.114 19.2543 102.602 19.0248 101.991 19.0248C101.367 19.0248 100.848 19.2543 100.436 19.7133C100.024 20.1595 99.8187 20.8161 99.8187 21.6831C99.8187 22.5374 100.018 23.194 100.418 23.653C100.83 24.112 101.341 24.3415 101.953 24.3415Z" fill="black"/>
<path d="M115.113 27.0189L113.108 24.0545L111.423 27.0189H107.959L111.405 21.5683L107.865 16.3472H111.461L113.465 19.2924L115.15 16.3472H118.614L115.113 21.7213L118.708 27.0189H115.113Z" fill="black"/>
</g>
<path fill-rule="evenodd" clip-rule="evenodd" d="M21.0018 15.8885C19.9651 15.1958 18.7462 14.8261 17.4993 14.8261V8.52173C19.9931 8.52173 22.4308 9.26122 24.5043 10.6467C26.5778 12.0321 28.1939 14.0013 29.1482 16.3053C30.1025 18.6092 30.3522 21.1444 29.8657 23.5903C29.3792 26.0361 28.1784 28.2828 26.415 30.0461C24.6517 31.8095 22.405 33.0103 19.9592 33.4968C17.5133 33.9833 14.9781 33.7336 12.6742 32.7793C10.3702 31.825 8.40103 30.2089 7.01557 28.1354C5.63011 26.0619 4.89062 23.6242 4.89062 21.1304H11.195C11.195 22.3773 11.5647 23.5962 12.2574 24.6329C12.9502 25.6697 13.9348 26.4777 15.0868 26.9549C16.2387 27.4321 17.5063 27.5569 18.7292 27.3136C19.9522 27.0704 21.0755 26.47 21.9572 25.5883C22.8389 24.7066 23.4393 23.5833 23.6825 22.3603C23.9258 21.1374 23.801 19.8698 23.3238 18.7179C22.8466 17.5659 22.0386 16.5813 21.0018 15.8885Z" fill="#007DFC"/>
<path fill-rule="evenodd" clip-rule="evenodd" d="M11.195 8.52173C11.195 9.34963 11.0319 10.1694 10.7151 10.9343C10.3983 11.6992 9.93389 12.3942 9.34847 12.9796C8.76306 13.565 8.06808 14.0294 7.30319 14.3462C6.53831 14.663 5.71852 14.8261 4.89063 14.8261L4.89062 21.1304C6.54642 21.1304 8.18601 20.8043 9.71577 20.1707C11.2455 19.537 12.6355 18.6082 13.8063 17.4374C14.9771 16.2666 15.9059 14.8766 16.5395 13.3469C17.1732 11.8171 17.4993 10.1775 17.4993 8.52173L11.195 8.52173Z" fill="#007DFC"/>
</svg>
