<svg width="148" height="40" viewBox="0 0 148 40" fill="none" xmlns="http://www.w3.org/2000/svg">
<g opacity="0.5">
<path d="M42.9168 12.2026V24.1008L35.3242 12.2026H32.2871V28.6301H35.3242V16.8258L42.9168 28.6301H45.9538V12.2026H42.9168Z" fill="black"/>
<path d="M47.3223 15.2769H50.4528V12.2026H47.3223V15.2769ZM47.369 28.6301V16.8962H50.4061V28.6301H47.369Z" fill="black"/>
<path d="M63.4732 22.7632C63.4732 18.7032 60.5997 16.7789 57.5627 16.7554C54.5023 16.7319 51.6755 18.7032 51.6755 22.7632C51.6755 26.8231 54.5023 28.7944 57.5627 28.7709C60.3427 28.7475 62.2584 27.4567 63.1462 25.3212L60.7866 24.3355C60.0624 25.7905 58.9177 26.3068 57.5627 26.3303C56.3946 26.3537 55.063 25.7905 54.7826 23.7019H63.4032C63.4499 23.3968 63.4732 23.0917 63.4732 22.7632ZM57.5627 19.1726C58.7308 19.196 59.9222 19.8297 60.296 21.5194H54.8293C55.2265 19.8062 56.4179 19.1491 57.5627 19.1726Z" fill="black"/>
<path d="M70.492 19.0787V16.7554H68.5764V13.6107L65.5393 14.5494V16.7554H63.6236V19.0787H65.5393V25.1569C65.5393 27.4567 65.7262 28.6301 69.2772 28.6301H70.0949V25.9548H69.2772C68.7165 25.9548 68.5764 25.8609 68.5764 25.1569V19.0787H70.492Z" fill="black"/>
<path d="M75.0049 26.0721L81.4528 19.4542V16.8962H71.7809V19.4542H78.0419L71.5941 26.0721V28.6301H81.5229V26.0721H75.0049Z" fill="black"/>
<path d="M82.6117 25.3212L85.6722 24.8518C85.8824 26.0252 87.2608 26.4711 88.1018 26.4711C88.9662 26.4711 90.4613 26.2833 90.4613 24.8753C90.4613 22.1295 82.9622 25.5558 82.9622 20.299C82.9622 16.9197 86.8636 16.7319 88.1018 16.7319C89.2699 16.7319 92.6574 16.9197 93.3582 19.6419L90.4613 20.2521C90.2044 19.0083 88.8961 18.7736 88.1952 18.7736C87.4944 18.7736 85.9992 18.9379 85.9992 20.299C85.9992 23.0213 93.4984 19.5481 93.4984 24.8753C93.4984 28.4658 89.3867 28.7709 88.1018 28.7709C86.9337 28.7709 83.2192 28.4658 82.6117 25.3212Z" fill="black"/>
<path d="M97.4438 22.7632C97.4438 25.6262 98.9623 26.4945 100.551 26.4711C101.976 26.4476 102.957 25.8609 103.541 24.2182L106.041 25.4385C105.13 27.8322 102.91 28.7475 100.551 28.7709C97.4905 28.7944 94.4068 26.8231 94.4068 22.7632C94.4068 18.7032 97.4905 16.7319 100.551 16.7554C102.91 16.7789 105.13 17.6941 106.041 20.0878L103.541 21.3082C102.957 19.6654 101.976 19.0787 100.551 19.0552C98.9623 19.0318 97.4438 19.9001 97.4438 22.7632Z" fill="black"/>
<path d="M114.194 16.7085C112.629 16.7085 111.204 17.5298 110.293 19.2899V12.2026H107.256V28.6301H110.293V24.4763C110.293 19.1022 112.512 18.6563 113.33 18.6563C114.638 18.6563 114.825 20.0174 114.825 22.0122V28.6301H117.862V22.0122C117.862 19.5246 117.465 16.7085 114.194 16.7085Z" fill="black"/>
<path d="M130.684 22.7632C130.684 18.7032 127.811 16.7789 124.774 16.7554C121.713 16.7319 118.887 18.7032 118.887 22.7632C118.887 26.8231 121.713 28.7944 124.774 28.7709C127.554 28.7475 129.47 27.4567 130.357 25.3212L127.998 24.3355C127.273 25.7905 126.129 26.3068 124.774 26.3303C123.606 26.3537 122.274 25.7905 121.994 23.7019H130.614C130.661 23.3968 130.684 23.0917 130.684 22.7632ZM124.774 19.1726C125.942 19.196 127.133 19.8297 127.507 21.5194H122.04C122.438 19.8062 123.629 19.1491 124.774 19.1726Z" fill="black"/>
</g>
<path d="M15.7529 23.7998V31.0816C15.7529 31.3608 15.6425 31.6285 15.446 31.8258C15.2496 32.0232 14.9831 32.1341 14.7051 32.1341C14.4273 32.1341 14.1608 32.0232 13.9643 31.8258C13.7678 31.6285 13.6574 31.3608 13.6574 31.0816V23.8099C13.9492 24.0239 14.2989 24.1434 14.66 24.1523C15.0537 24.1636 15.4394 24.0392 15.7529 23.7998ZM24.6762 21.6948C24.4103 21.6948 24.1552 21.801 23.9673 21.9898C23.7793 22.1787 23.6736 22.4349 23.6736 22.702V23.971C23.6736 24.2502 23.784 24.5179 23.9805 24.7152C24.1769 24.9126 24.4434 25.0235 24.7213 25.0235C24.9992 25.0235 25.2657 24.9126 25.4622 24.7152C25.6587 24.5179 25.7691 24.2502 25.7691 23.971V22.7524C25.7769 22.6079 25.7536 22.4635 25.7009 22.329C25.6481 22.1944 25.5672 22.0727 25.4635 21.9724C25.3598 21.8721 25.2358 21.7954 25.1 21.7474C24.9642 21.6996 24.8196 21.6817 24.6762 21.6948ZM11.3815 26.5595C11.0207 26.5486 10.6714 26.4293 10.3788 26.217V33.519C10.3788 33.7995 10.4897 34.0685 10.6872 34.2668C10.8846 34.4651 11.1524 34.5765 11.4316 34.5765C11.7108 34.5765 11.9786 34.4651 12.176 34.2668C12.3734 34.0685 12.4843 33.7995 12.4843 33.519V26.2674C12.1569 26.48 11.7706 26.5823 11.3815 26.5595ZM21.4077 19.5093C21.2718 19.5024 21.1361 19.5235 21.0085 19.571C20.8811 19.6186 20.7646 19.6917 20.666 19.7859C20.5676 19.8801 20.4893 19.9934 20.4357 20.119C20.3823 20.2446 20.3547 20.3799 20.3549 20.5165V26.1264C20.3549 26.4069 20.4658 26.6759 20.6632 26.8742C20.8607 27.0725 21.1284 27.1839 21.4077 27.1839C21.6869 27.1839 21.9547 27.0725 22.1521 26.8742C22.3495 26.6759 22.4604 26.4069 22.4604 26.1264V20.587C22.4684 20.4416 22.445 20.2963 22.3916 20.1609C22.3383 20.0256 22.2565 19.9034 22.1516 19.8029C22.0467 19.7024 21.9215 19.6258 21.7844 19.5787C21.6474 19.5314 21.5017 19.5146 21.3575 19.5294L21.4077 19.5093ZM18.079 21.6646C17.7013 21.662 17.3337 21.5425 17.0262 21.3222V28.6443C17.0262 28.9248 17.1371 29.1938 17.3345 29.3921C17.532 29.5904 17.7997 29.7018 18.079 29.7018C18.3582 29.7018 18.6259 29.5904 18.8234 29.3921C19.0208 29.1938 19.1317 28.9248 19.1317 28.6443V21.3323C18.8137 21.5703 18.4254 21.6943 18.0288 21.6848L18.079 21.6646ZM9.1055 27.2745V6.81899C9.10287 6.56965 9.0024 6.33143 8.82594 6.15605C8.64948 5.98067 8.41127 5.88231 8.16304 5.88232H7.94246C7.69423 5.88231 7.45602 5.98067 7.27956 6.15605C7.1031 6.33143 7.00264 6.56965 7 6.81899V27.2745C7 27.5256 7.0993 27.7664 7.27604 27.944C7.45278 28.1216 7.69251 28.2213 7.94246 28.2213H8.16304C8.413 28.2213 8.65272 28.1216 8.82946 27.944C9.00621 27.7664 9.1055 27.5256 9.1055 27.2745ZM11.4917 25.7839H11.2712C11.0212 25.7839 10.7815 25.6842 10.6047 25.5067C10.428 25.3291 10.3287 25.0883 10.3287 24.8372V9.25633C10.3313 9.007 10.4318 8.76876 10.6083 8.5934C10.7847 8.41802 11.0229 8.31966 11.2712 8.31967H11.4917C11.74 8.31966 11.9782 8.41802 12.1546 8.5934C12.3311 8.76876 12.4316 9.007 12.4342 9.25633V24.8573C12.4342 25.1084 12.3349 25.3492 12.1582 25.5268C11.9814 25.7044 11.7417 25.8041 11.4917 25.8041V25.7839ZM14.8104 23.3869H14.5798C14.3326 23.3869 14.0953 23.2882 13.9205 23.1125C13.7456 22.9369 13.6474 22.6987 13.6474 22.4502V11.6735C13.6461 11.5497 13.6692 11.4268 13.7155 11.312C13.7617 11.1972 13.8302 11.0927 13.9169 11.0047C14.0036 10.9166 14.1069 10.8468 14.2207 10.7991C14.3345 10.7514 14.4565 10.7268 14.5798 10.7268H14.8104C15.0587 10.7295 15.2958 10.8304 15.4703 11.0076C15.645 11.1849 15.7429 11.4242 15.7429 11.6735V22.4502C15.7429 22.6987 15.6446 22.9369 15.4697 23.1125C15.2949 23.2882 15.0578 23.3869 14.8104 23.3869ZM18.1291 20.9193H17.9185C17.6703 20.9193 17.4321 20.821 17.2556 20.6456C17.0791 20.4702 16.9787 20.232 16.9761 19.9827V14.1814C16.9679 14.0521 16.9861 13.9224 17.0298 13.8005C17.0734 13.6786 17.1416 13.5669 17.2299 13.4725C17.3183 13.3781 17.425 13.3029 17.5435 13.2516C17.6619 13.2003 17.7895 13.1739 17.9185 13.1742H18.1391C18.3891 13.1742 18.6288 13.2739 18.8056 13.4515C18.9823 13.629 19.0816 13.8699 19.0816 14.1209V19.9625C19.0829 20.0877 19.0595 20.2119 19.0127 20.3279C18.966 20.4439 18.8968 20.5495 18.8091 20.6385C18.7214 20.7275 18.6172 20.7981 18.5021 20.8463C18.3871 20.8945 18.2637 20.9193 18.1391 20.9193H18.1291ZM21.4578 18.7539H21.2372C20.9873 18.7539 20.7475 18.6542 20.5708 18.4766C20.394 18.2991 20.2948 18.0583 20.2948 17.8072V16.3065C20.2974 16.0571 20.3978 15.8189 20.5743 15.6436C20.7507 15.4681 20.989 15.3698 21.2372 15.3698H21.4578C21.706 15.3698 21.9443 15.4681 22.1207 15.6436C22.2972 15.8189 22.3976 16.0571 22.4003 16.3065V17.8072C22.4003 18.0566 22.3024 18.2959 22.1277 18.4731C21.9532 18.6504 21.7161 18.7513 21.4678 18.7539H21.4578Z" fill="#3F8810"/>
</svg>
