<svg width="25" height="25" viewBox="0 0 25 25" fill="none" xmlns="http://www.w3.org/2000/svg">
<path d="M6.8418 9.27563L6.85522 9.26072" stroke="black" stroke-linecap="round" stroke-linejoin="round"/>
<path d="M11.6836 9.27563L11.697 9.26072" stroke="black" stroke-linecap="round" stroke-linejoin="round"/>
<path d="M6.8418 14.1163L6.85522 14.1014" stroke="black" stroke-linecap="round" stroke-linejoin="round"/>
<path d="M11.6836 14.1163L11.697 14.1014" stroke="black" stroke-linecap="round" stroke-linejoin="round"/>
<path d="M6.8418 18.9575L6.85522 18.9426" stroke="black" stroke-linecap="round" stroke-linejoin="round"/>
<path d="M11.6836 18.9575L11.697 18.9426" stroke="black" stroke-linecap="round" stroke-linejoin="round"/>
<path d="M16.5233 23.7856H2.59946C2.26809 23.7856 1.99946 23.517 1.99946 23.1856V5.02058C1.99946 4.68921 2.26809 4.42058 2.59946 4.42058H9.26136V2.59995C9.26136 2.26858 9.52999 1.99995 9.86136 1.99995H15.9233C16.2546 1.99995 16.5233 2.26858 16.5233 2.59995V9.26185M16.5233 23.7856H23.1852C23.5165 23.7856 23.7852 23.517 23.7852 23.1856V9.86185C23.7852 9.53048 23.5165 9.26185 23.1852 9.26185H16.5233M16.5233 23.7856V18.9444M16.5233 9.26185V14.1031M16.5233 14.1031H18.9439M16.5233 14.1031V18.9444M16.5233 18.9444H18.9439" stroke="black" stroke-linecap="round" stroke-linejoin="round"/>
</svg>
