<svg width="50" height="49" viewBox="0 0 50 49" fill="none" xmlns="http://www.w3.org/2000/svg">
<path d="M6.47566 5.3658H4.86503V2.14453H24.1926V5.3658H22.582M6.47566 5.3658V47.2422H11.3076M6.47566 5.3658H22.582M22.582 47.2422V5.3658M22.582 47.2422H17.7501M22.582 47.2422H27.4139M3.25439 47.2422H11.3076M11.3076 47.2422V40.7997H17.7501V47.2422M11.3076 47.2422H17.7501M9.69692 8.58706H12.9182V13.419H9.69692V8.58706ZM16.1395 8.58706H19.3607V13.419H16.1395V8.58706ZM9.69692 16.6402H12.9182V21.4721H9.69692V16.6402ZM16.1395 16.6402H19.3607V21.4721H16.1395V16.6402ZM9.69692 24.6934H12.9182V29.5253H9.69692V24.6934ZM16.1395 24.6934H19.3607V29.5253H16.1395V24.6934ZM9.69692 32.7465H12.9182V37.5784H9.69692V32.7465ZM16.1395 32.7465H19.3607V37.5784H16.1395V32.7465Z" stroke="black" stroke-width="0.8" stroke-linecap="round" stroke-linejoin="round"/>
<path d="M22.9058 14.0625H27.4155M22.9058 16.9616H27.4155" stroke="black" stroke-width="0.8"/>
<path d="M43.5214 5.3658H45.132V2.14453H25.8045V5.3658H27.4151M43.5214 5.3658V47.2422H38.6895M43.5214 5.3658H27.4151M27.4151 5.3658V47.2422H32.247M46.7427 47.2422H38.6895M38.6895 47.2422V40.7997H32.247V47.2422M38.6895 47.2422H32.247M40.3001 8.58706H37.0789V13.419H40.3001V8.58706ZM33.8576 8.58706H30.6364V13.419H33.8576V8.58706ZM40.3001 16.6402H37.0789V21.4721H40.3001V16.6402ZM33.8576 16.6402H30.6364V21.4721H33.8576V16.6402ZM40.3001 24.6934H37.0789V29.5253H40.3001V24.6934ZM33.8576 24.6934H30.6364V29.5253H33.8576V24.6934ZM40.3001 32.7465H37.0789V37.5784H40.3001V32.7465ZM33.8576 32.7465H30.6364V37.5784H33.8576V32.7465Z" stroke="black" stroke-width="0.8" stroke-linecap="round" stroke-linejoin="round"/>
</svg>
