<svg width="50" height="49" viewBox="0 0 50 49" fill="none" xmlns="http://www.w3.org/2000/svg">
<path d="M11.2183 35.2188H2.03076M11.2183 35.2188L11.8218 35.4774C12.8213 35.9058 13.6539 36.6483 14.1934 37.5924L14.587 38.2813M11.2183 35.2188V32.1563M2.03076 35.2188V1.53125H11.2183V4.59375M2.03076 35.2188V47.4688H14.587M14.587 38.2813V47.4688M14.587 38.2813H17.3433M14.587 47.4688H47.9683V38.2813H44.9058M17.3433 38.2813V41.65M17.3433 38.2813H20.4058M20.4058 38.2813V42.875M20.4058 38.2813H23.4683M23.4683 38.2813V41.65M23.4683 38.2813H26.5308M26.5308 38.2813V42.875M26.5308 38.2813H29.5933M29.5933 38.2813V41.65M29.5933 38.2813H32.6558M32.6558 38.2813V42.875M32.6558 38.2813H35.7183M35.7183 38.2813V41.65M35.7183 38.2813H38.7808M38.7808 38.2813V42.875M38.7808 38.2813H41.8433M41.8433 38.2813V41.65M41.8433 38.2813H44.9058M44.9058 38.2813V42.875M11.2183 32.1563H7.84951M11.2183 32.1563V29.0938M11.2183 29.0938H6.31826M11.2183 29.0938V26.0313M11.2183 26.0313H7.84951M11.2183 26.0313V22.9688M11.2183 22.9688H6.31826M11.2183 22.9688V19.9063M11.2183 19.9063H7.84951M11.2183 19.9063V16.8438M11.2183 16.8438H6.31826M11.2183 16.8438V13.7813M11.2183 13.7813H7.84951M11.2183 13.7813V10.7188M11.2183 10.7188H6.31826M11.2183 10.7188V7.65625M11.2183 7.65625H7.84951M11.2183 7.65625V4.59375M11.2183 4.59375H6.31826" stroke="black" stroke-width="0.8" stroke-linecap="round" stroke-linejoin="round"/>
<path d="M43.0683 8.26875H45.6714M48.2745 8.26875H45.6714M45.6714 8.26875V33.6875M45.6714 33.6875H43.3745M45.6714 33.6875H48.2745M15.812 1.53125V3.98125M15.812 6.43125V3.98125M15.812 3.98125H41.8433V1.53125V6.43125M39.6995 18.9875H41.537L28.9808 7.9625L16.4245 18.9875H39.6995ZM39.6995 18.9875V33.6875H32.6558M18.262 19.2938V33.6875H24.9995M32.6558 33.6875V24.5H24.9995V33.6875M32.6558 33.6875H24.9995" stroke="black" stroke-width="0.8" stroke-linecap="round" stroke-linejoin="round"/>
<circle cx="8.15615" cy="41.3441" r="2.35625" stroke="black" stroke-width="0.8"/>
</svg>
