<svg width="50" height="49" viewBox="0 0 50 49" fill="none" xmlns="http://www.w3.org/2000/svg">
<path d="M13.0556 14.9061L7.3899 20.3797C7.09634 20.6633 6.93057 21.0539 6.93057 21.4621V21.4621C6.93057 22.2933 7.60441 22.9672 8.43564 22.9672H8.47124C8.85897 22.9672 9.23244 22.821 9.51714 22.5578L13.0556 19.2864M13.0556 14.9061V9.65469C13.0556 8.55012 13.951 7.65469 15.0556 7.65469H15.6493C16.7539 7.65469 17.6493 8.55012 17.6493 9.65469V10.468M13.0556 14.9061L17.6493 10.468M17.6493 10.468L23.6334 4.68675C24.399 3.9472 25.6096 3.93677 26.3877 4.66302L42.8318 20.0108C43.1778 20.3338 43.3743 20.786 43.3743 21.2593V21.4326C43.3743 22.2801 42.6872 22.9672 41.8397 22.9672V22.9672C41.4485 22.9672 41.072 22.8178 40.7872 22.5494L37.6556 19.5984M13.0556 19.2864L23.9349 9.2282C24.7067 8.51463 25.8992 8.52029 26.6642 9.24116L37.6556 19.5984M13.0556 19.2864V27.5609M13.0556 27.5609H8.46182M13.0556 27.5609L19.2648 30.1481C20.022 30.4636 20.8174 30.6784 21.6306 30.7868V30.7868M37.6556 19.5984V34.7081M8.46182 27.5609V26.8047C8.46182 25.7001 7.56639 24.8047 6.46182 24.8047H4.64307C3.5385 24.8047 2.64307 25.7001 2.64307 26.8047V42.0984C2.64307 43.203 3.53849 44.0984 4.64306 44.0984H6.46182C7.56639 44.0984 8.46182 43.203 8.46182 42.0984V41.3422M8.46182 27.5609V41.3422M32.3493 35.5234L32.0822 34.4549C31.8616 33.5724 31.2902 32.8183 30.5005 32.3669L30.1296 32.155C29.7753 31.9526 29.3851 31.8207 28.9806 31.7668V31.7668M17.6493 34.9109L34.7555 36.0907C35.1818 36.1201 35.6063 36.0122 35.9668 35.7827L43.4047 31.0496C44.8039 30.1591 46.6402 29.1289 47.8783 30.2324C47.9086 30.2595 47.9386 30.2877 47.9681 30.3172V30.3172C48.996 31.3451 47.699 32.9919 46.6307 33.9778L40.2517 39.865C38.5569 41.4291 36.4473 42.4717 34.1753 42.868L23.1325 44.7943C21.1426 45.1415 19.0973 44.9806 17.1861 44.3268L8.46182 41.3422M21.6306 30.7868V24.0484C21.6306 22.9439 22.526 22.0484 23.6306 22.0484H26.9806C28.0851 22.0484 28.9806 22.9439 28.9806 24.0484V31.7668M21.6306 30.7868L28.9806 31.7668" stroke="black" stroke-width="0.8" stroke-linecap="round"/>
</svg>
