<svg width="50" height="49" viewBox="0 0 50 49" fill="none" xmlns="http://www.w3.org/2000/svg">
<path d="M4.45221 15.6263L24.9996 1.83789L45.547 15.6263C46.3673 16.1767 45.9776 17.4566 44.9898 17.4566H43.3746V47.4691H6.62461V17.4566H5.00943C4.02159 17.4566 3.63194 16.1767 4.45221 15.6263Z" stroke="black" stroke-width="0.8" stroke-linejoin="round"/>
<path d="M13.6684 20.2117V20.2117C13.1609 19.7043 12.3383 19.7043 11.8309 20.2117L10.7951 21.2475C10.014 22.0286 10.014 23.2949 10.7951 24.0759L14.3979 27.6788C15.1789 28.4598 16.4453 28.4598 17.2263 27.6788L18.109 26.7961C18.701 26.2041 18.701 25.2443 18.109 24.6523V24.6523M13.6684 20.2117L19.0277 14.8523M13.6684 20.2117L18.109 24.6523M21.9371 17.7617L23.7323 15.9665C24.1018 15.597 24.6935 15.5743 25.0902 15.9144L26.25 16.9085C26.4312 17.0638 26.6621 17.1492 26.9008 17.1492H28.4041C29.295 17.1492 29.7412 16.0721 29.1113 15.4421L23.7746 10.1055L19.0277 14.8523M21.9371 17.7617L19.0277 14.8523M21.9371 17.7617L22.7613 18.5859C23.1518 18.9764 23.1518 19.6096 22.7613 20.0001L22.2434 20.518M18.109 24.6523L20.0996 22.6617M20.0996 22.6617L22.2434 20.518M20.0996 22.6617L25.459 28.0211M30.8184 33.3805L32.9621 31.2367M30.8184 33.3805V34.3895C30.8184 34.92 31.0291 35.4287 31.4041 35.8038L35.8354 40.235C36.6164 41.0161 37.8828 41.0161 38.6638 40.235L39.8166 39.0822C40.5977 38.3011 40.5977 37.0348 39.8166 36.2538L35.3854 31.8225C35.0103 31.4474 34.5016 31.2367 33.9712 31.2367H32.9621M30.8184 33.3805L27.909 30.4711M32.9621 31.2367L30.0527 28.3273M22.2434 20.518L27.6027 25.8773M27.6027 25.8773L34.9165 18.5636C35.0422 18.4379 35.1841 18.3295 35.3384 18.2413L36.3095 17.6864C36.8646 17.3693 37.5632 17.4628 38.0152 17.9148V17.9148C38.4673 18.3669 38.5608 19.0655 38.2437 19.6206L37.6887 20.5917C37.6005 20.746 37.4922 20.8879 37.3665 21.0136L30.0527 28.3273M27.6027 25.8773L30.0527 28.3273M25.459 28.0211L20.0996 33.3805M25.459 28.0211L27.909 30.4711M20.0996 33.3805L22.5496 35.8305M20.0996 33.3805H19.0905C18.5601 33.3805 18.0514 33.5912 17.6763 33.9663L13.2451 38.3975C12.464 39.1786 12.464 40.4449 13.2451 41.2259L14.7041 42.685C15.4852 43.4661 16.7515 43.4661 17.5326 42.685L21.9638 38.2538C22.3389 37.8787 22.5496 37.37 22.5496 36.8395V35.8305M22.5496 35.8305L27.909 30.4711" stroke="black" stroke-width="0.8" stroke-linejoin="round"/>
</svg>
