<svg width="98" height="22" viewBox="0 0 98 22" fill="none" xmlns="http://www.w3.org/2000/svg">
<path d="M97.9997 22H84.9238V0H88.2304V18.9666H97.9997V22Z" fill="black"/>
<path d="M81.0462 19.0585V22H67.3691V0H80.8358V2.9415H70.6757V9.1922H79.934V12.1337H70.6757V19.0585H81.0462Z" fill="black"/>
<path d="M56.0962 14.3398H51.9179V22H48.6113V0H56.0962C60.9357 0 64.0619 2.51253 64.0619 7.10863C64.0619 11.7354 60.9357 14.3398 56.0962 14.3398ZM56.0661 2.84958H51.9179V11.4903V14.3398H52.9042L54.5072 11.4903H56.0661C58.9819 11.4903 60.7554 9.8663 60.7554 7.13928C60.7554 4.41226 58.9819 2.84958 56.0661 2.84958Z" fill="black"/>
<path d="M42.1202 22L40.1663 16.546H30.8479L28.864 22H25.5273L33.7937 0H37.4309L45.6372 22H42.1202ZM35.5372 3.67688L31.8398 13.8189H37.2738L38.4762 16.546H40.1663L39.1744 13.8189L35.5372 3.67688Z" fill="black"/>
<path d="M9.61906 16.2396L3.03601 5.17827V22H0V0H4.05804L11.122 12.8691L18.5167 0H22.6048V22H19.5387V5.14763L12.6851 16.2396H9.61906Z" fill="black"/>
</svg>
